{
  "accessors": [
    {
      "bufferView": 2,
      "componentType": 5126,
      "count": 64167,
      "max": [
        14000.0,
        3832.22802734375,
        6000.0
      ],
      "min": [
        -6000.0,
        345.5169677734375,
        -14000.0
      ],
      "type": "VEC3"
    },
    {
      "bufferView": 2,
      "byteOffset": 770004,
      "componentType": 5126,
      "count": 64167,
      "max": [
        0.9985959529876709,
        0.9999998211860657,
        0.9612115025520325
      ],
      "min": [
        -0.9984146356582642,
        0.03876307234168053,
        -0.9860242009162903
      ],
      "type": "VEC3"
    },
    {
      "bufferView": 1,
      "componentType": 5126,
      "count": 64167,
      "max": [
        1.0,
        1.0
      ],
      "min": [
        0.0,
        0.0
      ],
      "type": "VEC2"
    },
    {
      "bufferView": 0,
      "componentType": 5125,
      "count": 383997,
      "type": "SCALAR"
    },
    {
      "bufferView": 2,
      "byteOffset": 1540008,
      "componentType": 5126,
      "count": 29646,
      "max": [
        14000.0,
        3595.665283203125,
        6000.0
      ],
      "min": [
        -6000.0,
        998.6514282226563,
        -14000.0
      ],
      "type": "VEC3"
    },
    {
      "bufferView": 2,
      "byteOffset": 1895760,
      "componentType": 5126,
      "count": 29646,
      "max": [
        0.8729418516159058,
        1.0,
        0.8707759976387024
      ],
      "min": [
        -0.7840180397033691,
        0.3557504117488861,
        -0.8632405400276184
      ],
      "type": "VEC3"
    },
    {
      "bufferView": 1,
      "byteOffset": 513336,
      "componentType": 5126,
      "count": 29646,
      "max": [
        1.0,
        1.0
      ],
      "min": [
        0.0,
        0.0
      ],
      "type": "VEC2"
    },
    {
      "bufferView": 0,
      "byteOffset": 1535988,
      "componentType": 5125,
      "count": 147279,
      "type": "SCALAR"
    }
  ],
  "asset": {
    "extras": {
      "author": "Araxiel (https://sketchfab.com/Araxiel)",
      "license": "CC-BY-4.0 (http://creativecommons.org/licenses/by/4.0/)",
      "source": "https://sketchfab.com/3d-models/fjordi-map-8a96c41e5e6440eab564ee6566225a86",
      "title": "Fjordi Map"
    },
    "generator": "Sketchfab-16.67.0",
    "version": "2.0"
  },
  "bufferViews": [
    {
      "buffer": 0,
      "byteLength": 2125104,
      "name": "floatBufferViews",
      "target": 34963
    },
    {
      "buffer": 0,
      "byteLength": 750504,
      "byteOffset": 2125104,
      "byteStride": 8,
      "name": "floatBufferViews",
      "target": 34962
    },
    {
      "buffer": 0,
      "byteLength": 2251512,
      "byteOffset": 2875608,
      "byteStride": 12,
      "name": "floatBufferViews",
      "target": 34962
    }
  ],
  "buffers": [
    {
      "byteLength": 5127120,
      "uri": "scene.bin"
    }
  ],
  "extensionsUsed": [
    "KHR_materials_specular"
  ],
  "images": [
    {
      "uri": "TerrainMaterial_baseColor.png"
    }
  ],
  "materials": [
    {
      "extensions": {
        "KHR_materials_specular": {
          "specularColorFactor": [
            1.0,
            1.0,
            1.0
          ],
          "specularFactor": 0.4007631261352415
        }
      },
      "name": "TerrainMaterial",
      "pbrMetallicRoughness": {
        "baseColorTexture": {
          "index": 0
        },
        "metallicFactor": 0.0,
        "roughnessFactor": 0.7
      }
    },
    {
      "name": "WaterMaterial",
      "pbrMetallicRoughness": {
        "baseColorFactor": [
          0.07,
          0.15,
          0.211,
          1.0
        ],
        "metallicFactor": 0.0,
        "roughnessFactor": 0.13
      }
    }
  ],
  "meshes": [
    {
      "name": "Object_0",
      "primitives": [
        {
          "attributes": {
            "NORMAL": 1,
            "POSITION": 0,
            "TEXCOORD_0": 2
          },
          "indices": 3,
          "material": 0,
          "mode": 4
        }
      ]
    },
    {
      "name": "Object_1",
      "primitives": [
        {
          "attributes": {
            "NORMAL": 5,
            "POSITION": 4,
            "TEXCOORD_0": 6
          },
          "indices": 7,
          "material": 1,
          "mode": 4
        }
      ]
    }
  ],
  "nodes": [
    {
      "children": [
        1
      ],
      "matrix": [
        -1.0,
        1.6081226229577284e-16,
        2.8327693431939995e-16,
        0.0,
        2.832769343193999e-16,
        -6.123234262925839e-17,
        1.0,
        0.0,
        1.6081226229577292e-16,
        1.0,
        6.123234262925839e-17,
        0.0,
        0.0,
        0.0,
        0.0,
        1.0
      ],
      "name": "Sketchfab_model"
    },
    {
      "children": [
        2
      ],
      "name": "root"
    },
    {
      "children": [
        3,
        5
      ],
      "matrix": [
        1.0,
        0.0,
        0.0,
        0.0,
        0.0,
        2.220446049250313e-16,
        1.0,
        0.0,
        0.0,
        -1.0,
        2.220446049250313e-16,
        0.0,
        0.0,
        0.0,
        0.0,
        1.0
      ],
      "name": "GLTF_SceneRootNode"
    },
    {
      "children": [
        4
      ],
      "name": "Terrain_0"
    },
    {
      "mesh": 0,
      "name": "Object_4"
    },
    {
      "children": [
        6
      ],
      "name": "_1"
    },
    {
      "mesh": 1,
      "name": "Object_6"
    }
  ],
  "samplers": [
    {
      "magFilter": 9729,
      "minFilter": 9729,
      "wrapS": 33071,
      "wrapT": 33071
    }
  ],
  "scene": 0,
  "scenes": [
    {
      "name": "Sketchfab_Scene",
      "nodes": [
        0
      ]
    }
  ],
  "textures": [
    {
      "sampler": 0,
      "source": 0
    }
  ]
}
